<svg
   height="48"
   width="48"
   xmlns="http://www.w3.org/2000/svg"
>
   <path
      fill="#555"
      d="M41.246 11.885c-3.63-5.17-9.24-8.4-15.345-8.885h-1.484c-6.105 0-11.88 2.585-16.005 6.946-4.125 4.362-5.94 10.339-5.28 16.316 1.155 9.692 9.075 17.446 18.975 18.415.66.323 1.485.323 2.31.323 4.29 0 8.25-1.13 11.879-3.554.825-.484.99-1.454.495-2.261-.495-.808-1.485-.97-2.31-.485-3.63 2.262-7.755 3.392-12.044 2.908-8.415-.808-15.015-7.431-16.005-15.67-.66-5.007.99-10.015 4.455-13.73 3.795-4.039 9.24-6.3 14.85-5.816 5.28.323 9.9 3.07 12.869 7.431 3.135 4.685 3.96 10.177 2.145 15.508v.161c-.495 1.616-2.145 2.746-3.96 2.746-2.31 0-4.125-1.776-4.125-4.038V15.923c0-.97-.66-1.615-1.65-1.615-.99 0-1.65.646-1.65 1.615-1.32-.97-3.135-1.615-4.95-1.615-4.62 0-8.25 3.554-8.25 8.077v3.23c0 4.523 3.63 8.077 8.25 8.077 2.31 0 4.29-.969 5.775-2.261 1.155 2.261 3.63 3.877 6.6 3.877 3.135 0 5.94-1.939 7.095-5.008v-.162C46.03 24 45.04 17.377 41.246 11.885zm-11.88 13.73c0 2.747-2.145 4.847-4.95 4.847-2.804 0-4.95-2.1-4.95-4.847v-3.23c0-2.747 2.146-4.847 4.95-4.847 2.805 0 4.95 2.1 4.95 4.847z"
   />
</svg>