<svg
   height="48"
   width="48"
   xmlns="http://www.w3.org/2000/svg"
   viewBox="0 0 48 48"
>
   <path
      d="M26.2 8.5C24 5.3 20.6 3.3 16.9 3H16c-3.7 0-7.2 1.6-9.7 4.3-2.5 2.7-3.6 6.4-3.2 10.1.7 6 5.5 10.8 11.5 11.4.4.2.9.2 1.4.2 2.6 0 5-.7 7.2-2.2.5-.3.6-.9.3-1.4-.3-.5-.9-.6-1.4-.3-2.2 1.4-4.7 2.1-7.3 1.8-5.1-.5-9.1-4.6-9.7-9.7-.4-3.1.6-6.2 2.7-8.5 2.3-2.5 5.6-3.9 9-3.6 3.2.2 6 1.9 7.8 4.6 1.9 2.9 2.4 6.3 1.3 9.6v.1c-.3 1-1.3 1.7-2.4 1.7-1.4 0-2.5-1.1-2.5-2.5V11c0-.6-.4-1-1-1s-1 .4-1 1c-.8-.6-1.9-1-3-1-2.8 0-5 2.2-5 5v2c0 2.8 2.2 5 5 5 1.4 0 2.6-.6 3.5-1.4.7 1.4 2.2 2.4 4 2.4 1.9 0 3.6-1.2 4.3-3.1v-.1c1.3-3.8.7-7.9-1.6-11.3zM19 17c0 1.7-1.3 3-3 3s-3-1.3-3-3v-2c0-1.7 1.3-3 3-3s3 1.3 3 3v2z"
   />
</svg>