<svg
   width="48"
   height="48"
   xmlns="http://www.w3.org/2000/svg"
>
   <path
      fill="#555"
      d="M12.332 37.247l1.864-2.49c-4.45-5.987-6.773-9.025-8.06-10.79l8.06-10.79a1.318 1.773 0 10-1.864-2.508L3.38 22.713A1.378 1.854 0 003 23.966a1.312 1.766 0 00.394 1.254zm32.287-14.534a7124.54 7124.54 0 01-8.95-12.044l-1.852 2.507c4.437 5.97 6.76 9.113 8.046 10.755l-8.046 10.826a1.312 1.766 0 00.92 3.02 1.312 1.766 0 00.931-.53L44.62 25.22A1.312 1.766 0 0045 23.966a1.312 1.766 0 00-.38-1.253zM20.417 44.999a1.312 1.766 0 001.312-1.342l7.127-38.534a1.312 1.766 0 00-2.546-.847l-7.166 38.533a1.312 1.766 0 00.918 2.137 1.312 1.766 0 00.355.053z"
   />
</svg>