<?xml version="1.0" encoding="UTF-8" standalone="no"?>
<svg
   height="48"
   width="600"
   version="1.1"
   id="svg123001"
   sodipodi:docname="contact_me.svg"
   inkscape:version="1.1.2 (0a00cf5339, 2022-02-04)"
   xmlns:inkscape="http://www.inkscape.org/namespaces/inkscape"
   xmlns:sodipodi="http://sodipodi.sourceforge.net/DTD/sodipodi-0.dtd"
   xmlns="http://www.w3.org/2000/svg"
   xmlns:svg="http://www.w3.org/2000/svg">
  <defs
     id="defs123005" />
  <sodipodi:namedview
     id="namedview123003"
     pagecolor="#ffffff"
     bordercolor="#666666"
     borderopacity="1.0"
     inkscape:pageshadow="2"
     inkscape:pageopacity="0.0"
     inkscape:pagecheckerboard="true"
     showgrid="false"
     inkscape:zoom="1.0924479"
     inkscape:cx="-4.1191896"
     inkscape:cy="129.98332"
     inkscape:window-width="1920"
     inkscape:window-height="1011"
     inkscape:window-x="0"
     inkscape:window-y="357"
     inkscape:window-maximized="1"
     inkscape:current-layer="svg123001" />
  <path
     fill="#555555"
     d="M 41.246,11.885 C 37.616,6.715 32.006,3.485 25.901,3 H 24.417 C 18.312,3 12.537,5.585 8.412,9.946 4.287,14.308 2.472,20.285 3.132,26.262 4.287,35.954 12.207,43.708 22.107,44.677 22.767,45 23.592,45 24.417,45 c 4.29,0 8.25,-1.13 11.879,-3.554 0.825,-0.484 0.99,-1.454 0.495,-2.261 -0.495,-0.808 -1.485,-0.97 -2.31,-0.485 -3.63,2.262 -7.755,3.392 -12.044,2.908 C 14.022,40.8 7.422,34.177 6.432,25.938 c -0.66,-5.007 0.99,-10.015 4.455,-13.73 3.795,-4.039 9.24,-6.3 14.85,-5.816 5.28,0.323 9.9,3.07 12.869,7.431 3.135,4.685 3.96,10.177 2.145,15.508 v 0.161 c -0.495,1.616 -2.145,2.746 -3.96,2.746 -2.31,0 -4.125,-1.776 -4.125,-4.038 V 15.923 c 0,-0.97 -0.66,-1.615 -1.65,-1.615 -0.99,0 -1.65,0.646 -1.65,1.615 -1.32,-0.97 -3.135,-1.615 -4.95,-1.615 -4.62,0 -8.25,3.554 -8.25,8.077 v 3.23 c 0,4.523 3.63,8.077 8.25,8.077 2.31,0 4.29,-0.969 5.775,-2.261 1.155,2.261 3.63,3.877 6.6,3.877 3.135,0 5.94,-1.939 7.095,-5.008 V 30.138 C 46.03,24 45.04,17.377 41.246,11.885 Z m -11.88,13.73 c 0,2.747 -2.145,4.847 -4.95,4.847 -2.804,0 -4.95,-2.1 -4.95,-4.847 v -3.23 c 0,-2.747 2.146,-4.847 4.95,-4.847 2.805,0 4.95,2.1 4.95,4.847 z"
     id="path122999" />
  <text
     xml:space="preserve"
     style="font-size:40px;line-height:1.25;font-family:monospace;-inkscape-font-specification:monospace"
     x="57.285156"
     y="38.560547"
     id="text126124"><tspan
       sodipodi:role="line"
       id="tspan126122"
       x="57.285156"
       y="38.560547"
       style="font-size:40px;fill:#d2d7e0;fill-opacity:1">Contact me!</tspan><tspan
       sodipodi:role="line"
       x="57.285156"
       y="88.560547"
       id="tspan129564"
       style="font-size:40px;fill:#d2d7e0;fill-opacity:1" /></text>
</svg>
