<svg
   height="48"
   width="48"
   viewBox="0 0 30.72 30.72"
   xmlns="http://www.w3.org/2000/svg"
>
   <path
      fill="gray"
      d="M28.76 7.699a3.534 3.534 0 00-.97-1.813 3.549 3.549 0 00-2.501-1.037H5.431a3.513 3.513 0 00-2.742 1.303A3.492 3.492 0 001.962 7.7a3.417 3.417 0 00-.068.687v13.947c0 .485.098.957.294 1.407.169.398.425.777.742 1.093a3.985 3.985 0 00.243.224 3.546 3.546 0 002.258.813h19.858a3.52 3.52 0 002.26-.819 3.063 3.063 0 00.241-.218c.306-.306.55-.657.724-1.044l.023-.056c.192-.44.29-.911.29-1.4V8.387c0-.23-.023-.463-.067-.688zM3.725 7.107A2.123 2.123 0 015.43 6.25H25.29c.574 0 1.11.222 1.51.627a2.132 2.132 0 01.193.225l.152.204-10.6 9.238a1.796 1.796 0 01-1.184.444 1.81 1.81 0 01-1.184-.444L3.586 7.308zm-.424 15.35a.845.845 0 01-.007-.123V8.675l8.226 7.176-8.143 7.1zm23.048 1.732a2.123 2.123 0 01-1.06.281H5.431c-.375 0-.742-.097-1.06-.281l-.333-.193 8.414-7.332.922.802c.553.48 1.258.745 1.986.745.73 0 1.437-.265 1.99-.745l.921-.802 8.41 7.332zm1.077-1.855a.91.91 0 01-.006.12l-.073.5-8.146-7.1 8.225-7.175z"
   />
</svg>