<svg
   width="200"
   height="227.455"
   viewBox="0 0 52.917 60.181"
   xmlns:xlink="http://www.w3.org/1999/xlink"
   xmlns="http://www.w3.org/2000/svg"
>
   <defs>
      <path
         d="M6.214 3.968v9.562a3.107 3.107 0 01-6.214 0V1.986C.58.922 1.242 0 2.437 0 4.38 0 5.06 2.442 6.214 3.968zm11.738.498v15.122a3.452 3.452 0 01-6.904 0V2.473C11.698 1.219 12.368 0 13.742 0c2.174 0 2.766 3.056 4.21 4.466zM29 4.188v10.978a3.107 3.107 0 11-6.214 0V1.673C23.326.747 23.97 0 25.046 0 27.087 0 27.734 2.692 29 4.188z"
         id="prefix__a"
      />
      <path
         d="M6.214 6.898c-.55-.674-1.203-1.175-2.147-1.175-2.24 0-2.652 2.824-4.067 4.097V-2.36a3.107 3.107 0 116.214 0zm11.738.218c-.587-.782-1.275-1.393-2.317-1.393-2.493 0-2.722 3.495-4.587 4.461V4.798a3.452 3.452 0 016.904 0zM29 6.512c-.478-.471-1.045-.79-1.798-.79-2.414 0-2.704 3.28-4.416 4.364V-.847a3.107 3.107 0 116.214 0z"
         id="prefix__b"
      />
   </defs>
   <g
      fill="none"
      fill-rule="evenodd"
   >
      <path
         d="M50.224 39.984c-.982 1.484-1.727 3.311-3.722 3.311-3.357 0-3.538-5.176-6.897-5.176-3.36 0-3.178 5.176-6.535 5.176s-3.539-5.176-6.898-5.176c-3.358 0-3.177 5.176-6.534 5.176-3.357 0-3.539-5.176-6.898-5.176-3.359 0-3.177 5.176-6.534 5.176-1.055 0-1.797-.51-2.422-1.212C1.382 37.903 0 33.003 0 27.766 0 12.43 11.846 0 26.458 0c14.613 0 26.459 12.431 26.459 27.766 0 4.384-.969 8.531-2.693 12.218z"
         fill="#fb70a9"
      />
      <g transform="translate(8.419 32.472) scale(1.20265)">
         <use
            fill="#4e56a6"
            xlink:href="#prefix__a"
            width="100%"
            height="100%"
         />
         <use
            fill-opacity=".299"
            fill="#000"
            xlink:href="#prefix__b"
            width="100%"
            height="100%"
         />
      </g>
      <path
         d="M50.224 39.984c-.982 1.484-1.727 3.311-3.722 3.311-3.357 0-3.538-5.176-6.897-5.176-3.36 0-3.178 5.176-6.535 5.176s-3.539-5.176-6.898-5.176c-3.358 0-3.177 5.176-6.534 5.176-3.357 0-3.539-5.176-6.898-5.176-3.359 0-3.177 5.176-6.534 5.176-1.055 0-1.797-.51-2.422-1.212C1.382 37.903 0 33.003 0 27.766 0 12.43 11.846 0 26.458 0c14.613 0 26.459 12.431 26.459 27.766 0 4.384-.969 8.531-2.693 12.218z"
         fill="#fb70a9"
      />
      <path
         d="M44.498 42.742c6.934-10.314 7.113-21.756.538-34.323a27.694 27.694 0 017.88 19.405c0 4.368-1.003 8.5-2.79 12.173-1.018 1.478-1.79 3.298-3.858 3.298-.708 0-1.28-.213-1.77-.553z"
         fill="#e24ca6"
      />
      <path
         d="M25.04 34.692c9.2 0 13.075-5.338 13.075-12.918 0-7.58-5.854-14.558-13.075-14.558-7.221 0-13.075 6.978-13.075 14.558s3.874 12.918 13.075 12.918z"
         fill="#fff"
      />
      <g transform="translate(16.621 11.379) scale(1.20265)">
         <ellipse
            fill="#030776"
            cx="4.077"
            cy="4.5"
            rx="4.077"
            ry="4.5"
         />
         <ellipse
            fill="#fff"
            cx="3.397"
            cy="3.462"
            rx="2.038"
            ry="2.077"
         />
      </g>
   </g>
</svg>