<svg
   width="49"
   height="49"
   viewBox="0 0 12.965 12.965"
   xmlns="http://www.w3.org/2000/svg"
>
   <path
      style="-inkscape-stroke:none"
      d="M6.482.132a6.41 6.41 0 00-.468.018 6.35 6.35 0 01.468-.018zm.34.01a6.35 6.35 0 01.309.023 6.37 6.37 0 00-.309-.023zM6.004.15c-.157.012-.314.03-.468.053A6.35 6.35 0 016.004.15zm-.468.053A6.299 6.299 0 003.732.76 6.35 6.35 0 015.536.203zM7.135.166a6.35 6.35 0 01.324.042 6.327 6.327 0 00-.324-.042zm.324.042a6.35 6.35 0 011.11.277 6.299 6.299 0 00-1.11-.277zm1.11.277a6.35 6.35 0 01.153.056 6.282 6.282 0 00-.154-.056zm.153.056a6.35 6.35 0 01.146.056 6.308 6.308 0 00-.146-.056zm.167.065a6.35 6.35 0 01.1.042 6.312 6.312 0 00-.1-.042zm.1.042L9.06.68A6.35 6.35 0 008.99.648zM9.06.68a6.35 6.35 0 01.078.035A6.312 6.312 0 009.061.68zm.078.035l.059.028a6.35 6.35 0 00-.059-.028zm.059.028a6.35 6.35 0 01.08.038l-.08-.038zm.08.038l.078.04a6.35 6.35 0 00-.079-.04zM3.717.765a6.34 6.34 0 00-.38.201 6.35 6.35 0 01.38-.2zm-.38.201a6.35 6.35 0 00-.069.041l.07-.04zm-.069.041a6.361 6.361 0 00-.315.198 6.35 6.35 0 01.315-.198zm-.315.198a6.35 6.35 0 00-.102.07 6.41 6.41 0 01.102-.07zm-.102.07a6.387 6.387 0 00-.276.204 6.35 6.35 0 01.276-.204zM9.393.84l.114.06a6.35 6.35 0 00-.114-.06zm.114.06a6.393 6.393 0 012.558 2.558A6.35 6.35 0 009.507.9zm2.558 2.558l.06.113a6.35 6.35 0 00-.06-.113zm-9.501-1.97a6.35 6.35 0 00-.094.076l.094-.076zm-.094.076c-.087.07-.172.143-.254.218a6.35 6.35 0 01.254-.218zm-.256.22a6.35 6.35 0 00-.104.097l.104-.098zm-.111.103a6.4 6.4 0 00-.216.216 6.35 6.35 0 01.216-.216zm-.222.223a6.35 6.35 0 00-.098.104l.098-.104zm-.1.106a6.393 6.393 0 00-.217.254 6.35 6.35 0 01.218-.254zm-.217.254a6.35 6.35 0 00-.076.094l.076-.094zm-.085.106c-.07.09-.138.182-.204.276a6.35 6.35 0 01.204-.276zm-.204.276a6.35 6.35 0 00-.07.102l.07-.102zm-.07.102c-.069.103-.135.208-.198.315a6.35 6.35 0 01.198-.315zm-.198.315a6.35 6.35 0 00-.04.07l.04-.07zm-.04.07a6.34 6.34 0 00-.202.38 6.35 6.35 0 01.201-.38zm11.177.27l.04.078a6.35 6.35 0 00-.04-.078zm.04.078a6.35 6.35 0 01.038.08l-.039-.08zm.038.08l.027.059a6.35 6.35 0 00-.027-.06zm.027.059a6.35 6.35 0 01.036.077 6.261 6.261 0 00-.036-.077zm.036.077l.032.073a6.35 6.35 0 00-.032-.073zm.032.073a6.35 6.35 0 01.041.1 6.308 6.308 0 00-.041-.1zM.759 3.732C.49 4.292.3 4.899.203 5.536A6.35 6.35 0 01.76 3.732zM.203 5.536c-.023.154-.04.31-.053.468a6.35 6.35 0 01.053-.468zm12.164-1.44a6.35 6.35 0 01.057.146 6.328 6.328 0 00-.057-.145zm.057.146a6.35 6.35 0 01.056.154 6.287 6.287 0 00-.056-.154zm.056.154a6.35 6.35 0 01.277 1.11 6.299 6.299 0 00-.277-1.11zm.277 1.11a6.35 6.35 0 01.042.324 6.325 6.325 0 00-.042-.325zM4.26 4.28v4.97h.675V5.62l4.601 6.426a6.35 6.35 0 00.707-.452c-.097.071-.196.14-.298.206l-5.01-7.52zm5.276 7.766a6.35 6.35 0 01-.279.147c.095-.046.19-.094.281-.145zm-.279.147l-.032.016a6.35 6.35 0 00.032-.016zm-.032.016a6.35 6.35 0 01-.415.18 6.35 6.35 0 00.415-.18zm-.415.18l-.021.01a6.35 6.35 0 00.02-.01zm-.021.01a6.35 6.35 0 01-.43.15c.145-.046.289-.096.43-.15zm-.858-8.12v3.126l.744 1.121V4.28zm4.868 1.555a6.35 6.35 0 01.024.308 6.396 6.396 0 00-.024-.308zm-12.65.18a6.41 6.41 0 00-.017.468 6.35 6.35 0 01.018-.468zm-.017.468c0 .158.007.314.018.468a6.35 6.35 0 01-.018-.468zm12.7 0a6.35 6.35 0 01-.017.46 6.43 6.43 0 00.017-.46zm-.017.46l-.002.035a6.35 6.35 0 00.002-.035zm-.002.035a6.35 6.35 0 01-.052.451c.023-.148.04-.3.052-.451zm-.052.451a6.35 6.35 0 01-.764 2.2 6.288 6.288 0 00.764-2.2zm-.764 2.2l-.032.057a6.35 6.35 0 00.032-.057zm-.032.057a6.35 6.35 0 01-.214.34c.075-.112.146-.225.214-.34zm-.214.34l-.058.083a6.35 6.35 0 00.058-.084zm-.058.083a6.35 6.35 0 01-.208.282c.072-.092.141-.186.208-.282zm-.208.282a6.337 6.337 0 01-.082.102 6.35 6.35 0 00.082-.102zm-.082.102a6.35 6.35 0 01-.188.219 6.38 6.38 0 00.188-.219zm-.188.219c-.06.067-.121.132-.184.196a6.35 6.35 0 00.184-.196zm-.184.196a6.35 6.35 0 01-.106.106c.036-.035.072-.07.106-.106zm-.106.106c-.069.068-.139.135-.21.2a6.35 6.35 0 00.21-.2zM.15 6.96c.012.158.03.314.053.468A6.35 6.35 0 01.15 6.96zm.053.468C.3 8.066.49 8.672.76 9.233a6.35 6.35 0 01-.556-1.805zm.562 1.818c.063.13.13.256.201.38a6.35 6.35 0 01-.2-.38zm.201.38a6.35 6.35 0 00.041.07l-.04-.07zm.041.07c.063.107.129.212.198.315a6.35 6.35 0 01-.198-.315zm.198.315a6.35 6.35 0 00.07.102 6.41 6.41 0 01-.07-.102zm.07.102c.066.094.134.186.204.276a6.35 6.35 0 01-.204-.276zm.213.288a6.35 6.35 0 00.076.094l-.076-.094zm.076.094c.07.086.143.171.218.254a6.35 6.35 0 01-.218-.254zm.22.255a6.35 6.35 0 00.097.105 6.397 6.397 0 01-.098-.105zm.103.112a6.4 6.4 0 00.216.215 6.35 6.35 0 01-.216-.215zm.223.222a6.35 6.35 0 00.104.097 6.406 6.406 0 01-.104-.097zm.106.099c.082.075.167.147.254.217a6.35 6.35 0 01-.254-.217zm.254.217a6.35 6.35 0 00.094.076L2.47 11.4zm8.224-.17a6.35 6.35 0 01-.143.122c.049-.04.096-.081.143-.123zm-.143.122a6.4 6.4 0 01-.271.214 6.35 6.35 0 00.271-.214zm-7.975.134c.09.07.182.138.276.203a6.35 6.35 0 01-.276-.203zm.276.203a6.35 6.35 0 00.102.07 6.45 6.45 0 01-.102-.07zm.102.07c.103.07.208.135.315.198a6.35 6.35 0 01-.315-.198zm.315.198a6.35 6.35 0 00.07.041l-.07-.04zm.07.041c.124.071.25.139.38.201a6.35 6.35 0 01-.38-.2zm.393.207c.56.271 1.167.46 1.804.556a6.35 6.35 0 01-1.804-.556zm1.804.556c.154.024.31.041.468.053a6.35 6.35 0 01-.468-.053zm2.815-.21a6.35 6.35 0 01-.917.21c.314-.048.62-.118.917-.21zm-.93.212a6.35 6.35 0 01-.439.049 6.34 6.34 0 00.438-.05zm-.439.049l-.043.003a6.35 6.35 0 00.043-.003zm-.043.003a6.35 6.35 0 01-.457.017c.154 0 .306-.006.457-.017zm-.457.017a6.35 6.35 0 01-.468-.017c.155.011.31.017.468.017z"
      fill="#fff"
   />
   <path
      d="M6.482.132a6.356 6.356 0 00-6.35 6.35 6.356 6.356 0 006.35 6.35 6.33 6.33 0 003.056-.784L4.934 5.62V9.25H4.26V4.28h.674l5.011 7.52a6.333 6.333 0 002.887-5.318 6.356 6.356 0 00-6.35-6.35zm2.193 8.394l-.744-1.121V4.28h.744z"
   />
</svg>