<svg
   xmlns="http://www.w3.org/2000/svg"
   width="800"
   height="800"
   viewBox="0 0 866 866"
   style="margin-bottom:-15px;margin-right:10px"
>
   <filter id="prefix__a">
      <feColorMatrix values="1 0 0 0 1 0 1 0 0 1 0 0 1 0 1 0 0 0 1 0" />
   </filter>
   <path
      filter="url(#prefix__a)"
      d="M25 653.3h565.9v-89.6c-11.8-15.6-19.7-34.3-22.3-54.7H127.3c-8 0-14.5-6.5-14.5-14.5s6.5-14.5 14.5-14.5h441.3c7.2-56.6 55.601-100.5 114.101-100.5 63.399 0 115 51.6 115 115 0 26-8.601 49.9-23.2 69.2v89.6H841c13.8 0 25-11.2 25-25v-493c0-13.8-11.2-25-25-25H25c-13.8 0-25 11.2-25 25v493c0 13.8 11.2 25 25 25zm258.3-464.5h299.4c8.3 0 15 6.7 15 15s-6.7 15-15 15H283.3c-8.3 0-15-6.7-15-15s6.7-15 15-15zm-156 96.4h611.4c8 0 14.5 6.5 14.5 14.5s-6.5 14.5-14.5 14.5H127.3c-8 0-14.5-6.5-14.5-14.5s6.5-14.5 14.5-14.5z"
   />
   <path
      filter="url(#prefix__a)"
      d="M616.4 588.4v152.3c0 9.1 7.399 15 15.1 15 3.9 0 7.8-1.5 10.9-4.8l29.3-31.601c3-3.2 7-4.8 11-4.8s8 1.6 11 4.8L723 750.9c3.1 3.3 7 4.8 10.9 4.8 7.699 0 15.1-5.9 15.1-15V588.4c-18.7 13.3-41.6 21.1-66.3 21.1s-47.5-7.8-66.3-21.1zM762.6 522.8c3.301-9.2 5.101-19 5.101-28.3 0-46.9-38.101-85-85-85-46.9 0-85 38.1-85 85 0 13 3.899 29 10.6 41.1 2.5 4.5 5.4 8.801 8.7 12.7 15.6 19 39.3 31.101 65.7 31.101 26.399 0 50.1-12.101 65.7-31.101 5.999-7.3 10.899-16.1 14.199-25.5z"
   />
</svg>