<svg
   width="72"
   height="48"
   viewBox="0 0 77.94 51.96"
   xmlns="http://www.w3.org/2000/svg"
>
   <path
      fill="#555"
      d="M5.31 41.499h46.687v-6.312c-.974-1.099-1.626-2.416-1.84-3.853H13.75c-.66 0-1.197-.458-1.197-1.022 0-.563.537-1.021 1.197-1.021h36.407c.594-3.987 4.587-7.08 9.413-7.08 5.23 0 9.488 3.635 9.488 8.101 0 1.832-.71 3.516-1.914 4.875V41.5h5.486c1.139 0 2.063-.789 2.063-1.761V5.008c0-.972-.924-1.76-2.063-1.76H5.31c-1.138 0-2.062.788-2.062 1.76v34.73c0 .972.924 1.761 2.062 1.761zM26.62 8.777h24.7c.685 0 1.238.472 1.238 1.057s-.553 1.057-1.238 1.057h-24.7c-.685 0-1.238-.472-1.238-1.057s.553-1.057 1.238-1.057zm-12.87 6.791h50.44c.66 0 1.197.458 1.197 1.022 0 .563-.537 1.021-1.197 1.021H13.75c-.66 0-1.197-.458-1.197-1.021 0-.564.537-1.022 1.197-1.022z"
   />
   <path
      fill="#333"
      d="M54.1 36.927v10.729c0 .64.61 1.057 1.246 1.057.322 0 .644-.106.9-.339l2.417-2.226c.247-.225.577-.338.907-.338.33 0 .66.113.908.338l2.417 2.226c.256.233.578.339.9.339.634 0 1.245-.416 1.245-1.057V36.927c-1.543.937-3.432 1.486-5.47 1.486-2.037 0-3.918-.549-5.47-1.486zm12.062-4.621c.272-.648.42-1.339.42-1.994 0-3.304-3.143-5.987-7.012-5.987-3.869 0-7.012 2.683-7.012 5.987 0 .916.322 2.043.874 2.896.207.317.446.62.718.894 1.287 1.339 3.242 2.191 5.42 2.191s4.134-.852 5.42-2.19c.495-.515.9-1.135 1.172-1.797z"
   />
</svg>