<?xml version="1.0" encoding="UTF-8" standalone="no"?>
<svg
   width="750"
   height="48"
   viewBox="0 0 960 61.44"
   class="prefix__prefix__icon"
   version="1.1"
   id="svg59753"
   sodipodi:docname="working_with.svg"
   inkscape:version="1.1.2 (0a00cf5339, 2022-02-04)"
   xmlns:inkscape="http://www.inkscape.org/namespaces/inkscape"
   xmlns:sodipodi="http://sodipodi.sourceforge.net/DTD/sodipodi-0.dtd"
   xmlns="http://www.w3.org/2000/svg"
   xmlns:svg="http://www.w3.org/2000/svg">
  <defs
     id="defs59757" />
  <sodipodi:namedview
     id="namedview59755"
     pagecolor="#ffffff"
     bordercolor="#666666"
     borderopacity="1.0"
     inkscape:pageshadow="2"
     inkscape:pageopacity="0.0"
     inkscape:pagecheckerboard="true"
     showgrid="false"
     inkscape:zoom="0.77247733"
     inkscape:cx="553.4143"
     inkscape:cy="50.486918"
     inkscape:window-width="1920"
     inkscape:window-height="1011"
     inkscape:window-x="0"
     inkscape:window-y="357"
     inkscape:window-maximized="1"
     inkscape:current-layer="svg59753" />
  <path
     fill="#555555"
     d="M 457.728,692.48 A 21.824,21.824 0 0 1 444.8,682.752 21.952,21.952 0 0 1 442.56,666.816 L 543.424,265.408 a 20.928,20.928 0 0 1 20.544,-15.936 c 16.512,3.584 23.232,14.656 20.544,26.112 L 483.648,675.2 a 20.928,20.928 0 0 1 -20.544,16 z M 355.968,645.12 A 21.504,21.504 0 0 1 340.8,638.912 L 190.72,485.824 a 20.672,20.672 0 0 1 0,-29.184 L 340.736,303.488 a 21.12,21.12 0 0 1 30.784,0 21.568,21.568 0 0 1 0,30.976 L 261.76,445.12 a 38.336,38.336 0 0 0 0,53.12 l 111.168,110.144 a 21.568,21.568 0 0 1 0,28.8 24.64,24.64 0 0 1 -16.96,7.936 z m 315.136,0 a 21.504,21.504 0 0 1 -16,-7.04 21.568,21.568 0 0 1 0,-30.976 L 764.864,498.24 a 35.2,35.2 0 0 0 0,-51.392 L 654.144,335.36 a 20.672,20.672 0 0 1 0,-28.8 23.68,23.68 0 0 1 17.92,-9.28 c 5.632,0 11.072,2.24 15.104,6.208 L 837.184,456.64 a 21.12,21.12 0 0 1 0,29.184 L 687.616,638.912 a 21.504,21.504 0 0 1 -16.512,6.208 z M 64,128 H 960 V 832 H 64 Z m 64,64 V 768 H 896 V 192 Z m 64,704 h 640 v 64 H 192 Z"
     id="path59751"
     transform="matrix(0.06,0,0,0.06462,0,-4.43)" />
  <text
     xml:space="preserve"
     style="font-size:51.2px;line-height:1.25;font-family:monospace;-inkscape-font-specification:monospace;stroke-width:1.28"
     x="71.775002"
     y="47.3675"
     id="text63470"><tspan
       sodipodi:role="line"
       id="tspan63468"
       style="font-size:51.2px;fill:#d2d7e0;fill-opacity:1;stroke-width:1.28"
       x="71.775002"
       y="47.3675">I'm currently working with...</tspan><tspan
       sodipodi:role="line"
       style="font-size:51.2px;fill:#d2d7e0;fill-opacity:1;stroke-width:1.28"
       x="71.775002"
       y="111.3675"
       id="tspan81016" /></text>
</svg>
