<?xml version="1.0" encoding="UTF-8" standalone="no"?>
<!-- Created with Inkscape (http://www.inkscape.org/) -->

<svg
   width="49"
   height="49"
   viewBox="0 0 12.964583 12.964579"
   version="1.1"
   id="svg5"
   inkscape:version="1.1.2 (0a00cf5339, 2022-02-04)"
   sodipodi:docname="nextjs.svg"
   xmlns:inkscape="http://www.inkscape.org/namespaces/inkscape"
   xmlns:sodipodi="http://sodipodi.sourceforge.net/DTD/sodipodi-0.dtd"
   xmlns="http://www.w3.org/2000/svg"
   xmlns:svg="http://www.w3.org/2000/svg">
  <sodipodi:namedview
     id="namedview7"
     pagecolor="#505050"
     bordercolor="#ffffff"
     borderopacity="1"
     inkscape:pageshadow="0"
     inkscape:pageopacity="0"
     inkscape:pagecheckerboard="1"
     inkscape:document-units="px"
     showgrid="false"
     units="px"
     width="49px"
     lock-margins="true"
     fit-margin-top="0.5"
     fit-margin-left="0.5"
     fit-margin-right="0.5"
     fit-margin-bottom="0.5"
     inkscape:zoom="9.0811369"
     inkscape:cx="7.4880492"
     inkscape:cy="40.743797"
     inkscape:window-width="1920"
     inkscape:window-height="1011"
     inkscape:window-x="0"
     inkscape:window-y="32"
     inkscape:window-maximized="1"
     inkscape:current-layer="layer1" />
  <defs
     id="defs2" />
  <g
     inkscape:label="Camada 1"
     inkscape:groupmode="layer"
     id="layer1"
     transform="translate(0.26458344,0.26458344)">
    <path
       id="path2011"
       style="fill:#ffffff;fill-opacity:1;stroke-width:0.549611;-inkscape-stroke:none;stop-color:#000000"
       d="m 6.2177072,-0.1322918 c -0.1575157,0 -0.3135212,0.00625 -0.4681884,0.01757 a 6.349999,6.349999 0 0 1 0.4681884,-0.01757 z m 0.3400308,0.009302 a 6.349999,6.349999 0 0 1 0.3085083,0.0237712 C 6.7640677,-0.1096219 6.6612781,-0.1175076 6.557738,-0.1229898 Z m -0.8180379,0.008785 c -0.1577464,0.0117895 -0.3138357,0.0295641 -0.4681883,0.05271 a 6.349999,6.349999 0 0 1 0.4681883,-0.05271 z m -0.4681883,0.05271 C 4.6343008,0.0340577 4.0278256,0.22396676 3.4669712,0.49454352 A 6.349999,6.349999 0 0 1 5.2715118,-0.0614948 Z m 1.5988686,-0.037207 a 6.349999,6.349999 0 0 1 0.3245278,0.0418579 C 7.0875147,-0.0734926 6.9794671,-0.087523 6.8703804,-0.0987018 Z m 0.3245278,0.0418579 A 6.349999,6.349999 0 0 1 8.3038845,0.22014172 C 7.9475453,0.09591007 7.5767847,0.0023561 7.1949082,-0.0568439 Z m 1.1089763,0.27698562 a 6.349999,6.349999 0 0 1 0.1539957,0.0558106 C 8.4067952,0.25663652 8.3555851,0.23816632 8.3038845,0.22014172 Z m 0.1539957,0.0558106 a 6.349999,6.349999 0 0 1 0.1452107,0.0568441 C 8.5549949,0.31323852 8.5065519,0.29435562 8.4578802,0.27595232 Z m 0.166398,0.065629 a 6.349999,6.349999 0 0 1 0.099736,0.0418579 c -0.033081,-0.0142599 -0.066368,-0.0281476 -0.099736,-0.0418579 z m 0.099736,0.0418579 c 0.024364,0.0105023 0.048658,0.0212416 0.072864,0.0320394 a 6.349999,6.349999 0 0 0 -0.072864,-0.0320394 z m 0.072864,0.0320394 a 6.349999,6.349999 0 0 1 0.077515,0.03514 c -0.02576,-0.0119096 -0.051571,-0.023567 -0.077515,-0.03514 z m 0.077515,0.03514 c 0.019694,0.009105 0.039326,0.0180881 0.058911,0.0273885 a 6.349999,6.349999 0 0 0 -0.058911,-0.0273885 z m 0.058911,0.0273885 a 6.349999,6.349999 0 0 1 0.079582,0.0387573 c -0.026465,-0.0130244 -0.052914,-0.026093 -0.079582,-0.0387573 z m 0.079582,0.0387573 c 0.026033,0.0128122 0.0522,0.0256004 0.078031,0.0387573 a 6.349999,6.349999 0 0 0 -0.078032,-0.0387576 z m -5.558834,-0.01602 C 3.3248961,0.5634147 3.1983393,0.63077787 3.0742304,0.7017657 A 6.349999,6.349999 0 0 1 3.4540522,0.50074442 Z M 3.0742304,0.7017657 a 6.349999,6.349999 0 0 0 -0.069763,0.0408244 c 0.023186,-0.0136562 0.04639,-0.0274555 0.069763,-0.0408244 z M 3.0044674,0.7425901 C 2.8973827,0.80566025 2.7921971,0.87145886 2.6892408,0.94051076 A 6.349999,6.349999 0 0 1 3.0044674,0.7425901 Z M 2.6892408,0.94051076 A 6.349999,6.349999 0 0 0 2.5869217,1.0107907 c 0.033814,-0.0236435 0.06803,-0.0472821 0.1023191,-0.0702799 z M 2.5869217,1.0107907 C 2.4931674,1.076346 2.4009379,1.1440052 2.3109695,1.2143958 A 6.349999,6.349999 0 0 1 2.5869217,1.0107907 Z M 9.1286401,0.57515844 c 0.038063,0.0197095 0.076078,0.0394922 0.1136883,0.0599446 A 6.349999,6.349999 0 0 0 9.1286401,0.57515844 Z m 0.1136883,0.0599446 C 10.321957,1.2222036 11.213211,2.1134577 11.800311,3.193086 A 6.349999,6.349999 0 0 0 9.2423284,0.63510304 Z M 11.800311,3.193086 c 0.02045,0.03761 0.04023,0.075625 0.05994,0.1136883 A 6.349999,6.349999 0 0 0 11.800311,3.193086 Z M 2.2990839,1.2236976 a 6.349999,6.349999 0 0 0 -0.094051,0.075964 c 0.031211,-0.025508 0.062352,-0.051042 0.094051,-0.075964 z m -0.094051,0.075964 C 2.1186751,1.3702398 2.0337971,1.442279 1.9513016,1.5172197 A 6.349999,6.349999 0 0 1 2.2050329,1.2996616 Z M 1.9497513,1.5187696 A 6.349999,6.349999 0 0 0 1.845365,1.6159216 c 0.034444,-0.032741 0.069217,-0.065181 0.1043863,-0.097152 z m -0.1116211,0.10387 C 1.7645807,1.6927687 1.6927687,1.7645808 1.6226396,1.8381303 A 6.349999,6.349999 0 0 1 1.8381302,1.6226396 Z M 1.6159216,1.845365 a 6.349999,6.349999 0 0 0 -0.097152,0.1043863 c 0.031971,-0.03517 0.06441,-0.069942 0.097152,-0.1043863 z M 1.5172197,1.9513016 C 1.4422789,2.0337976 1.3702398,2.1186751 1.2996619,2.2050329 A 6.349999,6.349999 0 0 1 1.5172197,1.9513016 Z M 1.2996619,2.2050329 a 6.349999,6.349999 0 0 0 -0.075964,0.094051 c 0.024922,-0.031699 0.050457,-0.062841 0.075964,-0.094051 z M 1.2143958,2.3109696 C 1.1440052,2.4009376 1.076346,2.4931674 1.0107907,2.5869217 A 6.349999,6.349999 0 0 1 1.2143958,2.3109696 Z M 1.0107907,2.5869217 A 6.349999,6.349999 0 0 0 0.9405108,2.6892408 C 0.9635086,2.6549518 0.9871472,2.6207358 1.0107907,2.5869217 Z M 0.94051077,2.6892408 C 0.87145885,2.7921971 0.80566026,2.8973827 0.74259006,3.0044672 A 6.349999,6.349999 0 0 1 0.94051077,2.6892408 Z M 0.74259006,3.0044672 a 6.349999,6.349999 0 0 0 -0.0408243,0.069763 c 0.0133688,-0.023373 0.0271682,-0.046577 0.0408243,-0.069763 z m -0.0408244,0.069763 C 0.63077785,3.1983393 0.56341474,3.3248964 0.5007444,3.4540522 A 6.349999,6.349999 0 0 1 0.70176566,3.0742302 Z M 11.879893,3.344498 c 0.01316,0.025832 0.02595,0.051998 0.03876,0.078032 a 6.349999,6.349999 0 0 0 -0.03876,-0.078032 z m 0.03876,0.078032 a 6.349999,6.349999 0 0 1 0.03876,0.079582 C 11.944753,3.475443 11.931683,3.448994 11.918653,3.42253 Z m 0.03876,0.079582 c 0.0093,0.019585 0.01828,0.039217 0.02739,0.058911 a 6.349999,6.349999 0 0 0 -0.02739,-0.058911 z m 0.02739,0.058911 a 6.349999,6.349999 0 0 1 0.03514,0.077515 c -0.01157,-0.025944 -0.02323,-0.051755 -0.03514,-0.077515 z m 0.03514,0.077515 c 0.0108,0.024206 0.02154,0.0485 0.03204,0.072864 a 6.349999,6.349999 0 0 0 -0.03204,-0.072864 z m 0.03204,0.072864 a 6.349999,6.349999 0 0 1 0.04186,0.099735 c -0.01371,-0.033368 -0.0276,-0.066654 -0.04186,-0.099735 z M 0.49454323,3.4669713 C 0.22396639,4.0278254 0.03405747,4.6343008 -0.06149509,5.2715118 A 6.349999,6.349999 0 0 1 0.49454323,3.4669713 Z m -0.55603832,1.8045405 c -0.0231458,0.1543526 -0.0409204,0.3104422 -0.05271,0.4681884 a 6.349999,6.349999 0 0 1 0.05271,-0.4681884 z M 12.102618,3.8323235 a 6.349999,6.349999 0 0 1 0.05684,0.1452107 c -0.0184,-0.048672 -0.03729,-0.097115 -0.05684,-0.1452107 z m 0.05684,0.1452107 a 6.349999,6.349999 0 0 1 0.05581,0.1539957 c -0.01802,-0.051701 -0.0365,-0.1029102 -0.05581,-0.1539957 z m 0.05581,0.1539957 a 6.349999,6.349999 0 0 1 0.276986,1.1089762 c -0.0592,-0.3818762 -0.152755,-0.752637 -0.276986,-1.1089762 z m 0.276986,1.1089762 a 6.349999,6.349999 0 0 1 0.04186,0.3245278 C 12.522938,5.4559473 12.508907,5.3478997 12.492259,5.2405061 Z M 3.9951041,4.0152579 V 8.9860133 H 4.6699984 V 5.3547108 l 4.6017855,6.4264802 a 6.349999,6.349999 0 0 0 0.7064167,-0.452168 c -0.097277,0.07155 -0.1962755,0.140663 -0.2976562,0.206705 L 4.6699984,4.0152579 Z m 5.2766798,7.7659331 a 6.349999,6.349999 0 0 1 -0.2790528,0.147278 c 0.09492,-0.04619 0.1890172,-0.09409 0.2811197,-0.144694 z m -0.2790528,0.147278 c -0.010731,0.0052 -0.021274,0.01086 -0.032039,0.01602 a 6.349999,6.349999 0 0 0 0.032039,-0.01602 z m -0.032039,0.01602 a 6.349999,6.349999 0 0 1 -0.4154786,0.180867 c 0.1410996,-0.05568 0.2797082,-0.115747 0.4154786,-0.180867 z m -0.4154786,0.180867 c -0.00704,0.0028 -0.014131,0.0055 -0.021187,0.0083 a 6.349999,6.349999 0 0 0 0.021187,-0.0083 z m -0.021187,0.0083 a 6.349999,6.349999 0 0 1 -0.4304646,0.150378 c 0.1458367,-0.04515 0.289483,-0.09533 0.4304646,-0.150378 z M 7.6661972,4.0152579 V 7.1406481 L 8.4103377,8.2615097 V 4.0152579 Z M 12.534633,5.569168 a 6.349999,6.349999 0 0 1 0.02377,0.3085084 C 12.552903,5.7741362 12.545033,5.6713467 12.534633,5.569168 Z M -0.1147218,5.7495189 c -0.0113196,0.1546671 -0.01757,0.3106726 -0.01757,0.4681883 a 6.349999,6.349999 0 0 1 0.01757,-0.4681883 z m -0.01757,0.4681883 c 0,0.1575157 0.00625,0.3135211 0.01757,0.4681883 a 6.349999,6.349999 0 0 1 -0.01757,-0.4681883 z m 12.6999978,0 a 6.349999,6.349999 0 0 1 -0.01705,0.4594034 c 0.01086,-0.1517923 0.01705,-0.3047637 0.01705,-0.4594034 z m -0.01705,0.4594034 c -8.39e-4,0.011723 -0.0017,0.023435 -0.0026,0.03514 a 6.349999,6.349999 0 0 0 0.0026,-0.03514 z m -0.0026,0.03514 a 6.349999,6.349999 0 0 1 -0.05116,0.4516518 c 0.02224,-0.1488032 0.03944,-0.2995884 0.05116,-0.4516518 z m -0.05116,0.4516518 A 6.349999,6.349999 0 0 1 11.732615,9.3632511 C 12.114337,8.6970185 12.37867,7.9549957 12.496909,7.1639025 Z M 11.732602,9.363251 c -0.01087,0.01898 -0.02149,0.037988 -0.03256,0.056844 a 6.349999,6.349999 0 0 0 0.03256,-0.056844 z m -0.03256,0.056844 a 6.349999,6.349999 0 0 1 -0.213424,0.339514 c 0.07476,-0.110704 0.145623,-0.2239718 0.213424,-0.339514 z m -0.213424,0.339514 c -0.01904,0.028197 -0.03891,0.055845 -0.05839,0.083716 a 6.349999,6.349999 0 0 0 0.05839,-0.083716 z m -0.05839,0.083716 a 6.349999,6.349999 0 0 1 -0.207726,0.281637 c 0.07191,-0.0917 0.140869,-0.1859673 0.207739,-0.2816369 z m -0.207726,0.281637 c -0.02707,0.03452 -0.0544,0.0689 -0.08217,0.102836 a 6.349999,6.349999 0 0 0 0.08217,-0.102836 z m -0.08217,0.102836 a 6.349999,6.349999 0 0 1 -0.188102,0.218591 c 0.06416,-0.07157 0.127198,-0.144142 0.188102,-0.218591 z m -0.188102,0.218591 c -0.05983,0.06674 -0.120884,0.132226 -0.183451,0.196371 a 6.349999,6.349999 0 0 0 0.183451,-0.196371 z m -0.183451,0.196371 a 6.349999,6.349999 0 0 1 -0.105937,0.105936 c 0.03569,-0.03491 0.07108,-0.0702 0.105937,-0.105936 z m -0.105937,0.105936 c -0.06915,0.06765 -0.139188,0.134496 -0.211356,0.198955 a 6.349999,6.349999 0 0 0 0.211356,-0.198955 z M -0.11420504,6.6957142 c 0.0117895,0.1577464 0.0295641,0.3138357 0.05271,0.4681883 a 6.349999,6.349999 0 0 1 -0.05271,-0.4681883 z m 0.05271,0.4681883 c 0.0955526,0.6372111 0.28546148,1.2436862 0.55603832,1.8045406 A 6.349999,6.349999 0 0 1 -0.06149504,7.1639025 Z m 0.56223949,1.8174597 c 0.0626703,0.1291561 0.1300334,0.2557129 0.20102126,0.3798218 A 6.349999,6.349999 0 0 1 0.50074445,8.9813622 Z M 0.70176576,9.361184 a 6.349999,6.349999 0 0 0 0.0408243,0.069763 C 0.72893396,9.407761 0.71513456,9.384557 0.70176576,9.361184 Z m 0.0408243,0.069763 c 0.0630702,0.1070845 0.12886879,0.2122701 0.19792071,0.3152263 A 6.349999,6.349999 0 0 1 0.74259006,9.430947 Z m 0.19792071,0.3152263 a 6.349999,6.349999 0 0 0 0.0702799,0.1023192 c -0.0236435,-0.033814 -0.0472821,-0.06803 -0.0702799,-0.1023192 z m 0.0702799,0.1023192 c 0.065555,0.093754 0.1332144,0.1859835 0.203605,0.2759525 A 6.349999,6.349999 0 0 1 1.0107907,9.8484925 Z M 1.2236976,10.13633 a 6.349999,6.349999 0 0 0 0.075964,0.09405 c -0.025508,-0.03121 -0.051042,-0.06235 -0.075964,-0.09405 z m 0.075964,0.09405 c 0.070578,0.08636 0.142617,0.171236 0.2175578,0.253731 A 6.349999,6.349999 0 0 1 1.2996616,10.23038 Z m 0.2191085,0.255282 a 6.349999,6.349999 0 0 0 0.097152,0.104387 c -0.032742,-0.03444 -0.065181,-0.06922 -0.097152,-0.104387 z m 0.1038695,0.111621 c 0.070129,0.07355 0.1419411,0.145362 0.2154906,0.215491 a 6.349999,6.349999 0 0 1 -0.2154906,-0.21549 z m 0.2227254,0.222209 a 6.349999,6.349999 0 0 0 0.1043863,0.09715 c -0.03517,-0.03197 -0.069942,-0.06441 -0.1043863,-0.09715 z m 0.1059366,0.0987 c 0.082496,0.07494 0.1673735,0.14698 0.2537313,0.217558 A 6.349999,6.349999 0 0 1 1.9513016,10.918195 Z m 0.2537313,0.217558 a 6.349999,6.349999 0 0 0 0.094051,0.07596 c -0.031699,-0.02492 -0.06284,-0.05046 -0.094051,-0.07596 z m 8.2248201,-0.171049 a 6.349999,6.349999 0 0 1 -0.143144,0.12299 c 0.04834,-0.04034 0.09603,-0.08126 0.143144,-0.12299 z m -0.143144,0.12299 c -0.08837,0.07374 -0.178968,0.144994 -0.271301,0.21394 a 6.349999,6.349999 0 0 0 0.271301,-0.21394 z m -7.9757395,0.133325 c 0.089968,0.07039 0.1821979,0.13805 0.2759522,0.203605 A 6.349999,6.349999 0 0 1 2.3109695,11.221019 Z m 0.2759522,0.203605 a 6.349999,6.349999 0 0 0 0.1023191,0.07028 c -0.034289,-0.023 -0.068505,-0.04664 -0.1023191,-0.07028 z m 0.1023191,0.07028 c 0.1029563,0.06905 0.2081419,0.134851 0.3152264,0.197921 A 6.349999,6.349999 0 0 1 2.6892408,11.494904 Z m 0.3152264,0.197921 a 6.349999,6.349999 0 0 0 0.069763,0.04082 c -0.023373,-0.01337 -0.046577,-0.02717 -0.069763,-0.04082 z m 0.069763,0.04082 c 0.1241089,0.07099 0.2506657,0.138351 0.3798218,0.201021 A 6.349999,6.349999 0 0 1 3.0742304,11.733649 Z m 0.3927408,0.207222 c 0.5608544,0.270578 1.1673296,0.460486 1.8045406,0.556039 A 6.349999,6.349999 0 0 1 3.4669712,11.940871 Z m 1.8045406,0.556039 c 0.1543526,0.02315 0.3104419,0.04092 0.4681883,0.05271 a 6.349999,6.349999 0 0 1 -0.4681881,-0.0527 z m 2.8148151,-0.210317 a 6.349999,6.349999 0 0 1 -0.9167399,0.209289 c 0.3140162,-0.04746 0.6201036,-0.117844 0.9167399,-0.209289 z m -0.9306924,0.211356 a 6.349999,6.349999 0 0 1 -0.4382161,0.04909 c 0.147633,-0.01157 0.2936978,-0.02758 0.4382161,-0.04909 z m -0.4382161,0.04909 c -0.014472,0.0011 -0.028908,0.0026 -0.043408,0.0036 a 6.349999,6.349999 0 0 0 0.043408,-0.0036 z m -0.043408,0.0036 a 6.349999,6.349999 0 0 1 -0.4563027,0.01705 c 0.1535038,0 0.3056323,-0.0063 0.4563027,-0.01705 z m -0.456303,0.01707 a 6.349999,6.349999 0 0 1 -0.4681884,-0.01757 c 0.1546672,0.01132 0.3106727,0.01757 0.4681884,0.01757 z" />
    <path
       d="m 6.2177072,-0.1322918 c -3.502421,0 -6.349999,2.8475768 -6.349999,6.349997 0,3.5024206 2.847578,6.3500008 6.349999,6.3500008 1.111249,0 2.153048,-0.287738 3.055935,-0.783828 L 4.6698942,5.3545005 V 8.9859058 H 3.9952062 V 4.0150496 h 0.674688 L 9.6804418,11.53583 c 1.7363262,-1.131093 2.8872642,-3.0857056 2.8872642,-5.3181248 0,-3.5024202 -2.8475772,-6.349997 -6.3499988,-6.349997 z M 8.4104412,8.261612 7.6662992,7.1404374 V 4.0150496 h 0.744142 z"
       id="path824-9"
       style="fill:#000000;fill-opacity:1;stroke-width:0.0992186" />
  </g>
</svg>
