<?xml version="1.0" encoding="UTF-8" standalone="no"?>
<!-- Created with Inkscape (http://www.inkscape.org/) -->

<svg
   width="200"
   height="227.455"
   viewBox="0 0 52.916665 60.180804"
   version="1.1"
   id="svg5"
   inkscape:version="1.1.2 (0a00cf5339, 2022-02-04)"
   sodipodi:docname="livewire-logo.svg"
   xmlns:inkscape="http://www.inkscape.org/namespaces/inkscape"
   xmlns:sodipodi="http://sodipodi.sourceforge.net/DTD/sodipodi-0.dtd"
   xmlns:xlink="http://www.w3.org/1999/xlink"
   xmlns="http://www.w3.org/2000/svg"
   xmlns:svg="http://www.w3.org/2000/svg">
  <sodipodi:namedview
     id="namedview7"
     pagecolor="#505050"
     bordercolor="#ffffff"
     borderopacity="1"
     inkscape:pageshadow="0"
     inkscape:pageopacity="0"
     inkscape:pagecheckerboard="1"
     inkscape:document-units="mm"
     showgrid="false"
     inkscape:zoom="0.9983453"
     inkscape:cx="194.32154"
     inkscape:cy="234.38784"
     inkscape:window-width="1920"
     inkscape:window-height="1011"
     inkscape:window-x="0"
     inkscape:window-y="32"
     inkscape:window-maximized="1"
     inkscape:current-layer="Group-3"
     units="px"
     width="200px" />
  <defs
     id="defs2">
    <path
       d="m 6.2142857,3.9676455 v 9.5626285 c 0,1.716027 -1.3911152,3.107142 -3.1071428,3.107142 C 1.3911152,16.637416 0,15.246301 0,13.530274 V 1.9862023 C 0.57992222,0.921665 1.2424079,0 2.4367722,0 4.3810703,0 5.0603972,2.4424473 6.2142857,3.9676455 Z M 17.952381,4.4658461 V 19.587619 c 0,1.906697 -1.545684,3.452381 -3.452381,3.452381 -1.906697,0 -3.452381,-1.545684 -3.452381,-3.452381 V 2.4727314 C 11.697748,1.2192079 12.367853,0 13.741544,0 c 2.174813,0 2.766925,3.0559283 4.210837,4.4658461 z M 29,4.1883101 V 15.166403 c 0,1.716028 -1.391115,3.107143 -3.107143,3.107143 -1.716028,0 -3.107143,-1.391115 -3.107143,-3.107143 V 1.6731604 C 23.326701,0.7472234 23.970903,0 25.046317,0 27.087459,0 27.734477,2.6918196 29,4.1883101 Z"
       id="path-100" />
    <path
       d="M 6.2142857,6.8984179 C 5.6631184,6.2235157 5.0106873,5.7226962 4.0670847,5.7226962 1.8264619,5.7226962 1.4151696,8.5465388 0,9.8196377 V -2.3606832 c 0,-1.7160277 1.3911152,-3.1071429 3.1071429,-3.1071429 1.7160276,0 3.1071428,1.3911152 3.1071428,3.1071429 z M 17.952381,7.1163026 C 17.36454,6.3341629 16.6774,5.7226962 15.634759,5.7226962 c -2.49282,0 -2.721327,3.4953025 -4.58714,4.4616518 V 4.7976081 c 0,-1.9066973 1.545684,-3.4523809 3.452381,-3.4523809 1.906697,0 3.452381,1.5456836 3.452381,3.4523809 z M 29,6.51179 C 28.521687,6.0408811 27.954554,5.7226962 27.202432,5.7226962 c -2.414835,0 -2.704813,3.2800307 -4.416718,4.3637178 V -0.84667139 c 0,-1.71602761 1.391115,-3.10714291 3.107143,-3.10714291 1.716028,0 3.107143,1.3911153 3.107143,3.10714291 z"
       id="path-300" />
  </defs>
  <g
     inkscape:label="Camada 1"
     inkscape:groupmode="layer"
     id="layer1">
    <g
       id="Page-1"
       stroke="none"
       stroke-width="1"
       fill="none"
       fill-rule="evenodd"
       transform="matrix(0.26458333,0,0,0.26458333,148.94517,116.90841)">
      <g
         id="10.5″-iPad-Pro-Copy-6"
         transform="translate(-116,-134)">
        <g
           id="Group-3"
           transform="translate(115,136)">
          <g
             id="Jelly"
             transform="matrix(4.5454546,0,0,4.5454546,-584.66965,-443.85856)">
            <path
               d="M 46.760672,33.246907 C 45.944861,34.480321 45.325048,36 43.666408,36 40.874958,36 40.724029,31.695652 37.931084,31.695652 35.13814,31.695652 35.289069,36 32.497619,36 29.70617,36 29.55524,31.695652 26.762296,31.695652 23.969351,31.695652 24.120281,36 21.328831,36 18.537381,36 18.386451,31.695652 15.593507,31.695652 12.800563,31.695652 12.951492,36 10.160042,36 9.2827466,36 8.6662594,35.574852 8.1466008,34.991788 6.1491449,31.515633 5,27.442124 5,23.086956 5,10.336382 14.849736,0 27,0 c 12.150264,0 22,10.336382 22,23.086956 0,3.645753 -0.805266,7.094133 -2.239328,10.159951 z"
               id="Body-Copy-2"
               fill="#fb70a9" />
            <g
               id="Legs"
               transform="translate(12,27)">
              <mask
                 id="mask-2"
                 fill="#ffffff">
                <use
                   xlink:href="#path-100"
                   id="use832"
                   x="0"
                   y="0"
                   width="100%"
                   height="100%" />
              </mask>
              <use
                 id="use835"
                 fill="#4e56a6"
                 xlink:href="#path-100"
                 x="0"
                 y="0"
                 width="100%"
                 height="100%" />
              <mask
                 id="mask-4"
                 fill="#ffffff">
                <use
                   xlink:href="#path-300"
                   id="use837"
                   x="0"
                   y="0"
                   width="100%"
                   height="100%" />
              </mask>
              <use
                 id="use840"
                 fill-opacity="0.298514"
                 fill="#000000"
                 xlink:href="#path-300"
                 x="0"
                 y="0"
                 width="100%"
                 height="100%" />
            </g>
            <path
               d="M 46.760672,33.246907 C 45.944861,34.480321 45.325048,36 43.666408,36 40.874958,36 40.724029,31.695652 37.931084,31.695652 35.13814,31.695652 35.289069,36 32.497619,36 29.70617,36 29.55524,31.695652 26.762296,31.695652 23.969351,31.695652 24.120281,36 21.328831,36 18.537381,36 18.386451,31.695652 15.593507,31.695652 12.800563,31.695652 12.951492,36 10.160042,36 9.2827466,36 8.6662594,35.574852 8.1466008,34.991788 6.1491449,31.515633 5,27.442124 5,23.086956 5,10.336382 14.849736,0 27,0 c 12.150264,0 22,10.336382 22,23.086956 0,3.645753 -0.805266,7.094133 -2.239328,10.159951 z"
               id="Body-Copy-4"
               fill="#fb70a9" />
            <path
               d="M 42,35.540093 C 47.765228,26.963518 47.9142,17.450154 42.446917,7 46.499483,11.151687 49,16.849102 49,23.135586 49,26.767609 48.165337,30.203003 46.678923,33.257275 45.83333,34.486044 45.19089,36 43.4717,36 42.883292,36 42.408076,35.822654 42,35.540093 Z"
               id="path844"
               fill="#e24ca6" />
            <g
               id="Eyes-Copy-2"
               transform="translate(0,6)">
              <path
                 d="m 25.820513,22.846154 c 7.650522,0 10.871795,-4.438261 10.871795,-10.741259 C 36.692308,5.8018971 31.824839,0 25.820513,0 19.816186,0 14.948718,5.8018971 14.948718,12.104895 c 0,6.302998 3.221272,10.741259 10.871795,10.741259 z"
                 id="Oval"
                 fill="#ffffff" />
              <g
                 id="Pupil"
                 transform="translate(18.820513,3.461538)">
                <ellipse
                   id="ellipse847"
                   fill="#030776"
                   cx="4.0769229"
                   cy="4.5"
                   rx="4.0769229"
                   ry="4.5" />
                <ellipse
                   id="ellipse849"
                   fill="#ffffff"
                   cx="3.3974359"
                   cy="3.4615386"
                   rx="2.0384614"
                   ry="2.0769231" />
              </g>
            </g>
          </g>
        </g>
      </g>
    </g>
  </g>
</svg>
